 <svg  version="1.0" xmlns="http://www.w3.org/2000/svg"  width="141.000000pt" height="164.000000pt" viewBox="0 0 141.000000 164.000000"  preserveAspectRatio="xMidYMid meet">  <g transform="translate(0.000000,164.000000) scale(0.100000,-0.100000)" fill="#ffffff" stroke="none"> <path d="M1100 1545 l-75 -22 -3 -267 c-2 -224 -5 -266 -17 -266 -12 0 -418 -114 -452 -127 -10 -4 -13 51 -13 257 0 244 -1 261 -17 256 -10 -2 -46 -12 -80 -22 l-63 -17 0 -614 c0 -580 1 -614 18 -609 9 2 45 12 80 22 l62 17 0 271 0 272 173 49 c94 26 180 52 190 57 16 8 17 -8 17 -271 0 -274 0 -279 20 -274 19 5 20 14 20 283 l0 278 23 6 c12 3 25 6 29 6 4 0 9 -123 10 -272 3 -237 5 -272 18 -269 8 2 43 11 78 19 l62 16 0 623 c0 343 -1 622 -2 622 -2 -1 -37 -12 -78 -24z m48 -1186 c-4 -8 -27 -20 -52 -26 l-46 -10 0 250 c0 282 -3 293 -63 276 -17 -5 -35 -16 -40 -24 -6 -11 -12 -13 -21 -6 -16 14 -385 -89 -397 -110 -4 -9 -11 -133 -15 -277 -6 -227 -9 -262 -23 -266 -9 -3 -31 -7 -49 -11 l-32 -7 0 585 0 584 39 11 c21 7 43 12 50 12 8 0 11 -66 11 -233 0 -222 1 -235 20 -252 20 -18 26 -17 247 46 124 35 237 72 250 82 l23 18 0 249 0 249 48 14 47 14 5 -576 c3 -317 2 -583 -2 -592z"/> <path d="M927 1493 c-4 -3 -7 -116 -7 -251 0 -218 2 -244 16 -238 9 3 18 6 20 6 2 0 4 110 4 245 0 198 -3 245 -13 245 -8 0 -17 -3 -20 -7z"/> <path d="M293 1313 c-10 -4 -13 -137 -13 -620 0 -557 1 -615 16 -609 9 3 18 6 20 6 2 0 4 277 4 615 0 338 -3 615 -7 614 -5 0 -14 -3 -20 -6z"/> <path d="M760 684 c-63 -19 -132 -39 -152 -45 -28 -7 -38 -15 -38 -30 0 -16 4 -19 21 -14 29 9 293 85 296 85 2 0 3 9 3 20 0 24 10 25 -130 -16z"/> </g> </svg> 