<?xml version="1.0" standalone="no"?>
<!DOCTYPE svg PUBLIC "-//W3C//DTD SVG 20010904//EN"
 "http://www.w3.org/TR/2001/REC-SVG-20010904/DTD/svg10.dtd">
<svg version="1.0" xmlns="http://www.w3.org/2000/svg"
 width="60.000000pt" height="60.000000pt" viewBox="0 0 60.000000 60.000000"
 preserveAspectRatio="xMidYMid meet">

<g transform="translate(0.000000,60.000000) scale(0.100000,-0.100000)"
fill="#3a113a" stroke="none">
<path d="M237 590 c-46 -12 -109 -43 -125 -63 -10 -12 -7 -15 18 -21 62 -12
100 -83 75 -141 -29 -71 -97 -93 -157 -51 -45 30 -53 22 -43 -42 21 -143 124
-246 267 -267 60 -9 71 -2 52 33 -32 61 -2 133 64 153 33 10 45 9 76 -6 21
-10 43 -29 49 -42 5 -12 14 -23 19 -23 5 0 21 26 36 57 84 184 -39 396 -243
417 -27 3 -67 1 -88 -4z m10 -66 c8 -21 -13 -42 -28 -27 -13 13 -5 43 11 43 6
0 13 -7 17 -16z m53 -39 c0 -8 -4 -15 -10 -15 -5 0 -10 7 -10 15 0 8 5 15 10
15 6 0 10 -7 10 -15z m186 -49 c29 -29 34 -41 34 -81 0 -124 -171 -163 -224
-50 -39 81 18 165 112 165 37 0 50 -6 78 -34z m-221 -201 c44 -43 30 -114 -25
-134 -35 -12 -56 -7 -88 22 -49 45 -11 137 58 137 19 0 40 -9 55 -25z"/>
<path d="M358 434 c-102 -55 -25 -208 82 -164 35 14 63 69 54 105 -8 32 -59
75 -87 75 -12 -1 -34 -7 -49 -16z"/>
<path d="M165 206 c-12 -18 -13 -30 -6 -49 19 -50 94 -44 107 9 14 56 -69 89
-101 40z"/>
<path d="M64 472 c-20 -13 -44 -70 -37 -89 26 -73 115 -87 148 -22 21 40 19
66 -10 94 -24 25 -77 34 -101 17z"/>
<path d="M365 145 c-48 -47 -20 -136 38 -121 39 9 92 50 95 74 2 13 -7 32 -22
47 -33 33 -79 33 -111 0z"/>
</g>
</svg>
